PathFileType	4	(X/Y/Z)	C:/Users/opensim2020/Desktop/walking_exp_matlab/subject02_walking17_run.trc	
DataRate	CameraRate	NumFrames	NumMarkers	Units	OrigDataRate	OrigDataStartFrame	OrigNumFrames	
100.00	100.00	8	51	mm	100.00	245	112	
Frame#	Time	LSHO			RELB			LANK			LTOE			LUPA			RUPA			RWRB			LKNE			RSHO			RFIN			RFRM			RASI			LTHI			LWRB			RTHI			LASI			LFHD			RKNE			LELB			LTIB			RWRA			STRN			RTIB			RFHD			RANK			RBHD			RTOE			RHEE			C7			LHEE			LFRM			CLAV			LWRA			LBHD			RBAK			LFIN			T10			LPSI			RPSI			*39			*40			*41			*42			*43			*44			*45			*46			*47			*48			*49			*50			
		X1	Y1	Z1	X2	Y2	Z2	X3	Y3	Z3	X4	Y4	Z4	X5	Y5	Z5	X6	Y6	Z6	X7	Y7	Z7	X8	Y8	Z8	X9	Y9	Z9	X10	Y10	Z10	X11	Y11	Z11	X12	Y12	Z12	X13	Y13	Z13	X14	Y14	Z14	X15	Y15	Z15	X16	Y16	Z16	X17	Y17	Z17	X18	Y18	Z18	X19	Y19	Z19	X20	Y20	Z20	X21	Y21	Z21	X22	Y22	Z22	X23	Y23	Z23	X24	Y24	Z24	X25	Y25	Z25	X26	Y26	Z26	X27	Y27	Z27	X28	Y28	Z28	X29	Y29	Z29	X30	Y30	Z30	X31	Y31	Z31	X32	Y32	Z32	X33	Y33	Z33	X34	Y34	Z34	X35	Y35	Z35	X36	Y36	Z36	X37	Y37	Z37	X38	Y38	Z38	X39	Y39	Z39	X40	Y40	Z40	X41	Y41	Z41	X42	Y42	Z42	X43	Y43	Z43	X44	Y44	Z44	X45	Y45	Z45	X46	Y46	Z46	X47	Y47	Z47	X48	Y48	Z48	X49	Y49	Z49	X50	Y50	Z50	X51	Y51	Z51	

15	0.140	-216.01643	-1458.93188	1449.93726	302.12625	-1492.37585	1174.14465	-113.80708	-1336.13501	109.74004	-103.09426	-1176.72095	88.27742	-361.51950	-1556.24829	1339.61487	258.55453	-1501.87244	1316.29883	112.26183	-1329.02502	1131.54858	-166.82057	-1406.94006	514.94574	133.12871	-1446.15039	1465.66663	69.92510	-1293.74011	1174.78247	209.04295	-1408.07422	1149.44141	92.04012	-1522.30981	950.90491	-223.60864	-1467.80286	702.96521	-322.40317	-1483.09326	1043.67078	133.48708	-1730.39172	687.03809	-141.82953	-1502.68127	990.34802	-132.19730	-1409.02161	1704.63013	91.28699	-1821.75830	493.22516	-430.78922	-1623.99988	1237.32617	-159.90617	-1399.21008	323.65747	92.71581	-1356.05408	1177.35938	-34.31974	-1406.77014	1230.10046	67.74971	-1996.05933	416.31485	12.54361	-1405.33215	1700.84546	10.43519	-2155.82251	321.56882	10.82380	-1522.86060	1588.64685	14.28455	-2178.05054	153.59988	-59.34871	-2186.72144	331.19510	-45.29841	-1531.79089	1498.83667	-59.56995	-1367.96997	85.61710	-386.32602	-1558.23816	1124.92920	-58.24564	-1405.09155	1410.52625	-290.85281	-1465.67676	1089.54700	-132.22350	-1515.39233	1598.07019	46.83953	-1622.62720	1370.39172	-292.70340	-1425.10388	1025.39111	-7.79229	-1657.58875	1270.77368	-89.21598	-1701.34387	1068.36646	28.27037	-1706.22205	1063.70142	-3357.40649	2845.99512	1034.69775																-48.36629	-1525.62024	1748.43372															 
16	0.150	-219.40331	-1423.47534	1444.05798	305.09918	-1467.48596	1178.00928	-105.94780	-1316.37781	104.45000	-97.89712	-1157.90845	78.36620	-356.93027	-1520.86987	1318.51575	258.46750	-1470.47058	1320.18225	123.96531	-1302.54529	1108.16870	-163.09189	-1373.56348	511.16949	133.26091	-1405.29297	1464.54858	79.89779	-1261.31921	1143.97937	217.20724	-1382.53772	1139.76050	91.97186	-1479.51782	951.50739	-225.26915	-1438.90662	693.69391	-295.26556	-1419.85474	1043.33728	138.54210	-1678.03418	679.03119	-141.71820	-1466.58911	989.63324	-134.32387	-1369.96326	1703.12061	97.34420	-1764.65198	485.53790	-418.60382	-1579.88110	1209.47607	-153.76973	-1371.67957	319.82886	100.94638	-1324.18359	1155.42603	-35.32368	-1368.31189	1229.31506	71.60819	-1943.04016	422.07181	10.72248	-1366.23645	1698.90381	12.16906	-2107.58301	339.23975	8.54245	-1483.73108	1586.16614	13.59266	-2140.41455	173.07594	-57.67352	-2137.62573	351.70630	-46.12778	-1492.04419	1497.33228	-51.10247	-1349.01746	81.72446	-364.87085	-1502.94873	1109.31189	-59.98672	-1367.64258	1408.58044	-268.59161	-1407.00293	1093.29529	-134.51585	-1475.55566	1595.95483	47.09332	-1583.07678	1368.89575	-264.13538	-1360.72668	1033.17395	-5.34203	-1619.01074	1271.88037	-86.23438	-1662.77002	1070.01697	31.10565	-1665.69336	1066.71167	-3357.37061	2845.96582	1034.56042																-50.67311	-1486.65503	1746.40442															 
17	0.160	-222.59125	-1388.11682	1437.28320	307.73126	-1442.02917	1182.11902	-98.63647	-1303.78699	97.82349	-89.52971	-1146.87488	64.85769	-351.31989	-1483.12854	1297.25793	257.20297	-1437.81433	1323.86743	138.33711	-1278.33008	1083.78833	-159.93800	-1338.98279	506.89001	132.67747	-1364.48645	1462.29272	93.19638	-1232.19177	1111.25696	226.75415	-1357.61328	1130.32520	92.39439	-1437.01331	951.40887	-224.73947	-1409.73718	684.24182	-268.45883	-1355.80688	1046.42456	143.91278	-1625.17786	669.89447	-142.03421	-1429.51990	988.52734	-136.02502	-1330.34326	1700.80872	103.12492	-1705.05933	476.79263	-405.12512	-1532.10144	1181.37439	-148.59326	-1348.61841	315.43765	110.98527	-1294.59900	1130.60278	-36.40923	-1330.20349	1227.19690	76.47141	-1886.26282	425.24921	9.12162	-1326.80798	1695.96765	15.16479	-2054.88989	354.80579	6.48739	-1443.96582	1582.93262	14.05107	-2095.69531	190.65254	-54.14836	-2084.53931	369.92621	-47.02245	-1452.56067	1495.38354	-43.37342	-1336.44006	76.33109	-343.01157	-1445.50525	1096.06458	-61.44677	-1329.54443	1405.30457	-246.65787	-1348.02283	1099.60522	-136.45586	-1435.56323	1592.92688	47.45980	-1543.86316	1367.23572	-236.38402	-1296.10364	1045.50159	-3.70028	-1580.56616	1272.03491	-82.95644	-1624.46912	1070.06067	34.01484	-1625.06335	1067.95740	-3357.16895	2845.92578	1034.30640																-52.39102	-1447.26501	1742.84436															 
18	0.170	-225.56696	-1352.79150	1429.89355	309.95096	-1415.63367	1186.16565	-91.78944	-1296.23828	89.65633	-79.82642	-1141.65173	47.89557	-345.06308	-1442.71814	1276.37146	255.71866	-1403.99414	1326.57422	154.67154	-1256.41125	1059.02917	-157.55240	-1305.92346	500.60681	131.28709	-1323.62720	1459.40051	109.79195	-1206.79358	1078.31018	235.58760	-1334.16174	1120.41211	92.81915	-1394.81714	950.46143	-219.51657	-1379.50989	674.94208	-242.39618	-1291.25989	1053.30591	149.28351	-1571.11047	659.77985	-142.77641	-1392.03247	984.70209	-137.05550	-1290.27527	1696.82922	109.40242	-1643.37927	466.83862	-390.36502	-1480.37122	1153.53955	-144.00214	-1329.49451	310.21707	123.38240	-1267.69067	1105.21106	-37.60073	-1292.29004	1223.71509	82.02937	-1826.22559	425.83084	7.89050	-1287.00928	1692.33997	19.25796	-1998.72144	367.52496	4.82696	-1404.11145	1578.95886	17.14461	-2044.39563	205.16463	-49.74176	-2028.72083	384.67911	-48.07884	-1413.13599	1492.70813	-36.43710	-1330.00500	70.21243	-320.58463	-1385.90381	1084.81140	-62.64561	-1291.81836	1400.99915	-225.92310	-1289.84790	1108.90527	-138.13098	-1395.76123	1589.30176	47.74890	-1504.69165	1365.20740	-209.92842	-1232.03796	1061.95349	-2.91795	-1542.15759	1271.02820	-79.53321	-1586.28906	1068.24915	37.15210	-1584.44678	1066.93542	-3357.22705	2845.98560	1034.31348																-53.58178	-1407.75232	1738.50281															 
19	0.180	-228.44843	-1317.45874	1422.31555	311.67618	-1388.10718	1189.95325	-84.47461	-1291.39783	80.26862	-68.84149	-1137.56226	34.45867	-337.98123	-1399.70569	1256.43115	254.60736	-1369.27136	1328.13379	173.46339	-1236.83960	1035.28113	-155.13541	-1277.18567	491.55063	129.30891	-1283.08423	1455.86133	129.22369	-1184.97815	1046.83862	246.93179	-1309.93030	1111.52490	92.84390	-1353.37561	948.97211	-211.11182	-1348.09607	666.56378	-217.99640	-1227.58862	1064.96545	154.35831	-1516.15735	649.26343	-144.23637	-1355.55261	980.54413	-138.29819	-1250.63037	1692.98743	116.41142	-1580.53271	456.63821	-374.37427	-1425.02063	1126.96777	-140.03606	-1314.01758	303.47995	138.33061	-1243.42920	1079.50427	-38.58248	-1254.54492	1218.90112	87.83055	-1763.61084	424.54672	7.05756	-1247.05444	1687.56714	24.06262	-1939.46021	377.54074	3.61879	-1364.51721	1574.69800	22.91760	-1987.73999	216.84872	-45.06705	-1970.53772	395.10147	-49.40977	-1374.54370	1489.42603	-32.22143	-1327.20288	60.97494	-297.75613	-1324.42017	1076.48560	-63.84728	-1253.91565	1395.96753	-206.34805	-1233.19641	1121.35706	-139.39445	-1355.83899	1585.36243	47.67969	-1465.83899	1362.71533	-185.92529	-1170.73010	1083.59717	-3.20356	-1503.91553	1268.83057	-76.02521	-1548.23145	1064.39465	40.41414	-1543.99695	1063.41858	-3357.21143	2846.18604	1034.34888																-54.23303	-1367.85669	1733.85266															 
20	0.190	-231.23631	-1281.75537	1414.81641	312.76154	-1359.70825	1193.18469	-78.48371	-1286.75415	71.83677	-66.58752	-1129.14868	31.17302	-330.16281	-1354.19275	1237.77759	253.92743	-1334.09314	1328.60632	193.65421	-1219.65784	1013.63458	-151.62080	-1252.78345	480.33496	127.08620	-1243.38330	1451.80933	150.06355	-1166.47986	1017.74213	257.17416	-1287.36536	1102.67334	93.27340	-1312.62891	946.59534	-203.99715	-1315.77612	659.10400	-195.46222	-1165.62317	1080.55579	159.56508	-1460.78064	638.80115	-146.93871	-1318.34985	975.69183	-138.29733	-1209.85510	1688.79565	124.03298	-1517.39038	446.60184	-357.15750	-1365.74011	1102.68872	-137.32156	-1301.60876	294.25488	154.04073	-1222.41785	1054.97375	-39.40616	-1216.66174	1213.05347	93.96630	-1699.00183	422.03784	6.73227	-1206.76477	1682.55737	29.55223	-1876.16077	384.25134	2.64156	-1325.08801	1570.40833	31.39566	-1925.10559	224.57852	-39.56367	-1909.54089	401.70285	-51.13683	-1336.73572	1485.15967	-28.03418	-1326.67957	49.09134	-275.59842	-1261.97961	1072.11609	-64.89357	-1216.48523	1390.57324	-189.07767	-1178.21179	1136.17590	-140.31808	-1316.02881	1581.55090	47.10874	-1427.30896	1359.41858	-164.16072	-1111.81433	1109.11743	-4.46398	-1465.78418	1265.11584	-72.30212	-1510.02502	1058.52417	43.62906	-1503.64941	1057.79163	-3356.81494	2846.07788	1034.51355																-54.28975	-1327.32410	1729.52832															 
21	0.200	-233.43872	-1245.13562	1407.48840	314.31882	-1330.67065	1195.65295	-71.40161	-1284.42737	61.92855	-70.44924	-1128.49597	29.21208	-321.73349	-1306.08569	1220.27490	253.45345	-1298.44507	1327.93030	215.13358	-1203.76953	995.65216	-146.32588	-1230.25464	467.89383	125.11063	-1204.71606	1447.68604	171.99104	-1150.59448	992.34003	268.35495	-1264.98169	1095.22095	93.75534	-1272.10510	943.05518	-199.82133	-1282.43933	651.86786	-174.70592	-1105.95935	1098.72241	165.10597	-1404.80981	628.45227	-150.74265	-1281.17334	969.68713	-137.90184	-1168.99512	1684.43640	131.07060	-1451.08191	436.11948	-338.77127	-1303.11548	1081.70068	-131.52789	-1286.61084	283.37289	171.91229	-1203.22559	1032.84143	-40.21199	-1178.66919	1206.23206	100.56349	-1632.29834	418.38593	7.14166	-1166.51965	1677.29187	36.33273	-1809.83008	387.31921	1.79349	-1285.80237	1566.26221	42.08253	-1857.31995	228.04456	-32.78629	-1845.52429	404.39816	-53.20234	-1299.58789	1479.91663	-20.80440	-1325.82703	38.32568	-254.25302	-1198.97900	1071.52380	-65.63710	-1179.64624	1384.99255	-172.21988	-1126.03369	1152.27869	-140.95752	-1276.24402	1578.24255	45.92588	-1389.58911	1355.18872	-144.89760	-1057.26184	1136.25391	-6.45831	-1427.73022	1259.87183	-68.48293	-1471.62805	1050.88989	46.78476	-1463.55530	1050.47339	-3357.13721	2845.95361	1034.73718																-53.85377	-1286.53430	1726.14063															 
22	0.210	-235.01019	-1207.35242	1400.74036	316.44717	-1301.40637	1197.49841	-64.97114	-1283.26282	57.29017	-67.57715	-1128.15051	29.37330	-312.77899	-1255.40894	1204.98633	252.99870	-1263.73669	1326.70544	236.91057	-1188.69836	981.98785	-139.12357	-1208.23694	454.86819	123.38287	-1167.48767	1443.66296	193.53882	-1135.82446	972.95581	279.73538	-1242.95850	1089.09485	92.25491	-1232.88513	937.62054	-195.94168	-1249.35510	644.59595	-155.44699	-1048.90137	1118.84265	170.52310	-1348.16235	618.31012	-155.38538	-1244.87634	962.08020	-136.96275	-1128.04236	1680.73950	138.38107	-1384.70435	427.91830	-319.90421	-1238.14893	1065.75378	-125.93996	-1267.00354	271.71677	189.38322	-1186.26477	1015.17957	-40.93214	-1140.59534	1198.95044	108.09994	-1563.24780	413.82394	8.12824	-1126.31482	1672.27612	44.84372	-1740.81836	386.51572	1.15142	-1246.98499	1562.73962	54.18670	-1784.73169	227.85521	-24.49305	-1778.67236	402.97385	-55.19082	-1262.85278	1473.69336	-14.91373	-1325.56433	34.30244	-233.18272	-1135.89050	1075.24109	-66.91862	-1141.76880	1379.31714	-156.86487	-1075.75000	1169.33826	-141.39551	-1236.57910	1575.79321	43.81539	-1352.51489	1349.68250	-128.04559	-1005.89783	1164.61230	-8.84079	-1389.68640	1253.14307	-64.89724	-1433.56018	1041.62708	50.12487	-1424.17468	1041.85107	-3356.75122	2846.06982	1034.46240																-52.90013	-1245.18738	1723.32446															 
